<svg xmlns="http://www.w3.org/2000/svg" width="1600" height="800" viewBox="0 0 1600 800" fill="none">
  <title>Projektabwicklung KWK – Fuchs</title>
  <defs>
    <linearGradient id="bg" x1="0" y1="0" x2="1600" y2="800" gradientUnits="userSpaceOnUse">
      <stop offset="0" stop-color="#0B0B0B"/>
      <stop offset="1" stop-color="#141414"/>
    </linearGradient>
    <linearGradient id="accent" x1="0" y1="0" x2="0" y2="800" gradientUnits="userSpaceOnUse">
      <stop offset="0" stop-color="#FF914D" stop-opacity="0.35"/>
      <stop offset="1" stop-color="#FF914D" stop-opacity="0.06"/>
    </linearGradient>
  </defs>
  <rect width="1600" height="800" fill="url(#bg)"/>
  <path d="M0,120 C420,30 780,210 1600,20 L1600,0 L0,0 Z" fill="url(#accent)"/>
  <g transform="translate(800,400)" stroke-linecap="round" stroke-linejoin="round">
    <circle cx="0" cy="0" r="170" stroke="#FF914D" stroke-width="6" fill="none"/>
    <!-- Timeline -->
    <g stroke="#EDEFF6" stroke-width="10" fill="none">
      <line x1="-120" y1="40" x2="120" y2="40"/>
      <circle cx="-90" cy="40" r="12" fill="#FF914D"/>
      <circle cx="-20" cy="40" r="12" fill="#FF914D"/>
      <circle cx="60" cy="40" r="12" fill="#FF914D"/>
    </g>
    <!-- Checklist -->
    <g transform="translate(-60,-70)" stroke="#9da0a8" stroke-width="8">
      <rect x="-70" y="-20" width="140" height="120" rx="12" fill="none"/>
      <line x1="-40" y1="-5" x2="40" y2="-5"/>
      <line x1="-40" y1="25" x2="40" y2="25"/>
      <line x1="-40" y1="55" x2="10" y2="55"/>
      <path d="M-55 35 L-40 50 L-25 30" stroke="#FF914D" stroke-width="8" />
    </g>
  </g>
</svg>
