<svg xmlns="http://www.w3.org/2000/svg" width="1600" height="800" viewBox="0 0 1600 800" fill="none">
  <title>Strommix & KWK: Klima – Fuchs</title>
  <defs>
    <linearGradient id="bg" x1="0" y1="0" x2="1600" y2="800" gradientUnits="userSpaceOnUse">
      <stop offset="0" stop-color="#0B0B0B"/>
      <stop offset="1" stop-color="#141414"/>
    </linearGradient>
    <linearGradient id="accent" x1="0" y1="0" x2="0" y2="800" gradientUnits="userSpaceOnUse">
      <stop offset="0" stop-color="#FF914D" stop-opacity="0.35"/>
      <stop offset="1" stop-color="#FF914D" stop-opacity="0.06"/>
    </linearGradient>
  </defs>
  <rect width="1600" height="800" fill="url(#bg)"/>
  <path d="M0,140 C420,40 820,220 1600,40 L1600,0 L0,0 Z" fill="url(#accent)"/>
  <g transform="translate(800,400)" stroke-linecap="round" stroke-linejoin="round">
    <circle cx="0" cy="0" r="170" stroke="#FF914D" stroke-width="6" fill="none"/>
    <!-- Cloud -->
    <g transform="translate(-40,-30)" stroke="#EDEFF6" stroke-width="8">
      <path d="M-60 20 C-80 20 -90 0 -80 -20 C-70 -35 -50 -35 -40 -26 C-25 -50 20 -45 30 -20 C50 -25 70 -10 70 10 C70 35 45 50 15 50 H-35 C-50 50 -60 40 -60 20 Z" fill="#FFE1CF12"/>
    </g>
    <!-- CO2 bubbles -->
    <g stroke="#EDEFF6" stroke-width="8">
      <circle cx="90" cy="-10" r="10"/>
      <circle cx="120" cy="10" r="8"/>
    </g>
    <!-- Plug (KWK-Strom) -->
    <g transform="translate(-90,60)" stroke="#FF914D" stroke-width="10">
      <rect x="-24" y="-24" width="48" height="46" rx="8" fill="none"/>
      <line x1="-10" y1="-40" x2="-10" y2="-24"/>
      <line x1="10" y1="-40" x2="10" y2="-24"/>
      <path d="M24 0 H 80" />
    </g>
  </g>
</svg>
