<svg xmlns="http://www.w3.org/2000/svg" width="1600" height="800" viewBox="0 0 1600 800" fill="none">
  <title>KWK Grundlagen – Fuchs</title>
  <defs>
    <linearGradient id="bg" x1="0" y1="0" x2="1600" y2="800" gradientUnits="userSpaceOnUse">
      <stop offset="0" stop-color="#0B0B0B"/>
      <stop offset="1" stop-color="#141414"/>
    </linearGradient>
    <linearGradient id="accent" x1="0" y1="0" x2="0" y2="800" gradientUnits="userSpaceOnUse">
      <stop offset="0" stop-color="#FF914D" stop-opacity="0.35"/>
      <stop offset="1" stop-color="#FF914D" stop-opacity="0.06"/>
    </linearGradient>
  </defs>
  <rect width="1600" height="800" fill="url(#bg)"/>
  <path d="M0,120 C420,30 780,210 1600,20 L1600,0 L0,0 Z" fill="url(#accent)"/>
  <g transform="translate(800,400)">
    <circle cx="0" cy="0" r="170" stroke="#FF914D" stroke-width="6" fill="none"/>
    <!-- Turbine-like blades -->
    <g stroke="#FFE1CF" stroke-width="10" stroke-linecap="round">
      <path d="M0 -110 C40 -70 40 -20 0 0" />
      <path d="M0 -110 C-40 -70 -40 -20 0 0" transform="rotate(120)"/>
      <path d="M0 -110 C-40 -70 -40 -20 0 0" transform="rotate(240)"/>
    </g>
    <!-- Small heat droplet -->
    <path d="M80 40 C80 10 105 -10 115 -35 C125 -10 150 10 150 40 C150 60 135 78 115 78 C95 78 80 60 80 40Z" fill="#FF914D" fill-opacity="0.9"/>
  </g>
</svg>
