<svg xmlns="http://www.w3.org/2000/svg" width="1600" height="800" viewBox="0 0 1600 800" fill="none">
  <title>Recht & Messkonzept – Fuchs</title>
  <defs>
    <linearGradient id="bg" x1="0" y1="0" x2="1600" y2="800" gradientUnits="userSpaceOnUse">
      <stop offset="0" stop-color="#0B0B0B"/>
      <stop offset="1" stop-color="#141414"/>
    </linearGradient>
    <linearGradient id="accent" x1="0" y1="0" x2="0" y2="800" gradientUnits="userSpaceOnUse">
      <stop offset="0" stop-color="#FF914D" stop-opacity="0.35"/>
      <stop offset="1" stop-color="#FF914D" stop-opacity="0.06"/>
    </linearGradient>
  </defs>
  <rect width="1600" height="800" fill="url(#bg)"/>
  <path d="M0,120 C420,30 780,210 1600,20 L1600,0 L0,0 Z" fill="url(#accent)"/>
  <g transform="translate(800,400)" stroke-linecap="round" stroke-linejoin="round">
    <circle cx="0" cy="0" r="170" stroke="#FF914D" stroke-width="6" fill="none"/>
    <!-- Scales -->
    <g transform="translate(-50,-40)" stroke="#EDEFF6" stroke-width="10">
      <line x1="-40" y1="-20" x2="40" y2="-20"/>
      <line x1="0" y1="-60" x2="0" y2="80"/>
      <path d="M-40 -20 C-60 0 -60 30 -40 40 C-20 30 -20 0 -40 -20 Z" fill="#FF914D22" stroke="#FF914D"/>
      <path d="M40 -20 C20 0 20 30 40 40 C60 30 60 0 40 -20 Z" fill="#FF914D22" stroke="#FF914D"/>
    </g>
    <!-- Meter arc -->
    <g transform="translate(70,60)" stroke="#FFE1CF" stroke-width="10" fill="none">
      <path d="M -70 40 A 80 80 0 0 1 70 40"/>
      <line x1="0" y1="40" x2="10" y2="0"/>
    </g>
  </g>
</svg>
